<svg id="Layer_1" data-name="Layer 1" xmlns="http://www.w3.org/2000/svg" viewBox="0 0 69.05 79.45"><defs><style>.cls-1{fill:#ca262c;}</style></defs><title>Artboard 1</title><path class="cls-1" d="M21.72,34.56S17.6,31,17.5,25.67a12.51,12.51,0,0,1,7.15-12.1s-2.39,3.59-2,7.32C23.06,23.92,26,28.75,21.72,34.56Z"/><path class="cls-1" d="M22.74,34.78a13.57,13.57,0,0,0,3.05-11.14c-.95-6.07.61-9.57,5.45-11.72,4-1.77,7.76-.8,13.61-.84,5.39,0,7.08-3.41,7.08-3.41s1.76,6.23-6.86,8.13a11.48,11.48,0,0,0,14.35,2.12s-2.55,10-15.67,8.23c-6-.8-8.2.13-11.34,3.82C30,32.75,28.89,34.7,22.74,34.78Z"/><path class="cls-1" d="M37.08,27.51s.91.77,1.81,1.71a6.59,6.59,0,0,0,8.24,1.31,5.41,5.41,0,0,1-2.78-1.4A6.57,6.57,0,0,0,37.08,27.51Z"/><path class="cls-1" d="M52.22,56.46a24.15,24.15,0,0,0,1.12-6.77,26.39,26.39,0,0,0-.81-6.33l-11.7.43-.07,0c-3.6-1.23-9.53-3.2-10.11-3.23a36.77,36.77,0,0,0-5.23.56A36.61,36.61,0,0,0,21,45.19a3.3,3.3,0,0,0,2.92,1.25,4,4,0,0,0,2.76-1.76l.09-.16,2.43-.46.05.42c0,.22.82,5.5,7.78,5.5h.15v.8h-.16a9,9,0,0,1-6.25-2.08,2.52,2.52,0,0,1-1,1.82,2.38,2.38,0,0,1-.34,4.33,2.11,2.11,0,0,1,.09,2.86c6.65-.19,9.14-1.6,9.17-1.62l.1-.06H39Z"/><path class="cls-1" d="M20.12,46h.54a3.94,3.94,0,0,1-.5-.62h0a.4.4,0,0,1,.05-.49c.4-.42,1.2-1.23,2-2.06H20.12a1.58,1.58,0,1,0,0,3.16Z"/><path class="cls-1" d="M29.27,56.34A1.31,1.31,0,0,0,28,55H21.2a1.31,1.31,0,1,0,0,2.63H28A1.31,1.31,0,0,0,29.27,56.34Z"/><path class="cls-1" d="M21,54.2h7.63a1.58,1.58,0,1,0,0-3.16H21a1.58,1.58,0,1,0,0,3.16Z"/><path class="cls-1" d="M20.69,50.23h7.61a1.72,1.72,0,0,0,0-3.43H25.52a4.16,4.16,0,0,1-1.49.44,4,4,0,0,1-2.29-.44h-1a1.72,1.72,0,0,0,0,3.43Z"/><path class="cls-1" d="M20.12,42h3a9.91,9.91,0,0,1,2.08-1.68,27,27,0,0,1,3.92-.51l.41-3.59H18.94l.67,5.83A2.5,2.5,0,0,1,20.12,42Z"/><polygon class="cls-1" points="21.49 58.46 22.16 64.27 26.29 64.27 26.95 58.46 21.49 58.46"/><path class="cls-1" d="M34.52,79.2,34.15,79C20.49,72.58,11.23,65.55,5.81,57.25A36.85,36.85,0,0,1,0,37.49V0H69V37.46a36.88,36.88,0,0,1-5.82,19.8C57.82,65.55,48.55,72.58,34.9,79ZM1.76,1.76v35.7C2.18,49.69,6.4,63.88,34.52,77.25,62.64,63.88,66.87,49.69,67.29,37.43V1.76Z"/><path class="cls-1" d="M28.9,46a7.38,7.38,0,0,1-.33-1l-1.28.24a5.11,5.11,0,0,1-.64.73Z"/></svg>