<svg id="Layer_1" data-name="Layer 1" xmlns="http://www.w3.org/2000/svg" viewBox="0 0 337.34 79.45"><defs><style>.cls-1{fill:#ca262c;}</style></defs><title>Artboard 1</title><path class="cls-1" d="M89,14.75h8.27c4.59,0,8.94,1.73,8.94,7a6,6,0,0,1-4.9,6.08v.08c3.88.31,6.27,2.9,6.27,6.94,0,1.8-1.18,7.69-10.12,7.69H89Zm2.82,12.16h5.69c2.71,0,5.65-1.29,5.65-4.86,0-1.14-.59-4.71-5.92-4.71H91.86Zm0,13h5.41c4.08,0,7.29-1.61,7.29-5.25s-2.43-5.41-6.94-5.41H91.86Z"/><path class="cls-1" d="M115.83,42.51H113V14.75h8.55c5.65,0,9.14,2.43,9.14,7.41,0,3.84-2.55,6.78-7.1,7.18l8,13.18h-3.45l-7.61-12.9h-4.71Zm0-15.49h5c5.06,0,6.78-2.2,6.78-4.86s-1.73-4.82-6.78-4.82h-5Z"/><path class="cls-1" d="M139.07,39.93h14.86v2.59H136.24V14.75h17.22v2.59H139.07v9.45h13.45v2.59H139.07Z"/><path class="cls-1" d="M178.75,38.28h.08V14.75h2.82V42.51h-3.53L161.57,18.75h-.08V42.51h-2.82V14.75h3.53Z"/><path class="cls-1" d="M197.43,42.51H194.6V17.34h-9.29V14.75h21.41v2.59h-9.29Z"/><path class="cls-1" d="M219.28,38.51h.08l7-23.76h3.37l7,23.76h.08l6.59-23.76h3.14l-8.2,27.76H235l-7-23.76h-.08l-7,23.76h-3.29l-8.2-27.76h3.14Z"/><path class="cls-1" d="M262.38,43.22a14.13,14.13,0,0,1-14.47-14.59,14.47,14.47,0,1,1,28.94,0A14.13,14.13,0,0,1,262.38,43.22Zm0-26.59c-7.14,0-11.41,5.61-11.41,12s4.27,12,11.41,12,11.41-5.61,11.41-12S269.52,16.63,262.38,16.63Z"/><path class="cls-1" d="M295.13,43.22a14.13,14.13,0,0,1-14.47-14.59,14.47,14.47,0,1,1,28.94,0A14.13,14.13,0,0,1,295.13,43.22Zm0-26.59c-7.14,0-11.41,5.61-11.41,12s4.27,12,11.41,12,11.41-5.61,11.41-12S302.27,16.63,295.13,16.63Z"/><path class="cls-1" d="M313.54,14.75h9.21c6.94,0,14.59,4.63,14.59,13.88s-7.65,13.88-14.59,13.88h-9.21Zm2.82,25.18h5.49c8.47,0,12.43-5.57,12.43-11.29s-4-11.29-12.43-11.29h-5.49Z"/><path class="cls-1" d="M121.09,56.66a3.48,3.48,0,0,0-2.73-1.29c-2.54,0-4.22,2-4.22,4.6a4.16,4.16,0,0,0,4.22,4.41,3.48,3.48,0,0,0,3-1.52l1.29,1a5.26,5.26,0,0,1-4.28,2A5.82,5.82,0,0,1,112.51,60a5.73,5.73,0,0,1,5.89-6,5,5,0,0,1,4,1.76Z"/><path class="cls-1" d="M127.3,59.87a5.9,5.9,0,1,1,5.89,5.94A5.76,5.76,0,0,1,127.3,59.87Zm10.16,0a4.27,4.27,0,1,0-4.27,4.5A4.25,4.25,0,0,0,137.46,59.87Z"/><path class="cls-1" d="M145.23,54.21h1.53v9.87H152v1.44h-6.73Z"/><path class="cls-1" d="M158.24,54.21h1.53v9.87H165v1.44h-6.73Z"/><path class="cls-1" d="M171.26,54.21h7.3v1.44h-5.77V59h5.37v1.44h-5.37v3.63h6.05v1.44h-7.59Z"/><path class="cls-1" d="M195.08,59.2v5.58a9.18,9.18,0,0,1-4.28,1,5.94,5.94,0,1,1-.16-11.89,5.44,5.44,0,0,1,4.22,1.47l-1.09,1.17a4.38,4.38,0,0,0-7.4,3.31,4.37,4.37,0,0,0,4.39,4.5,6,6,0,0,0,2.78-.59V60.63H191V59.2Z"/><path class="cls-1" d="M202.54,54.21h7.3v1.44h-5.77V59h5.37v1.44h-5.37v3.63h6.05v1.44h-7.59Z"/><path class="cls-1" d="M226.66,63.16a2.82,2.82,0,0,0,2.4,1.21,2.1,2.1,0,0,0,2.25-1.88c0-2.6-5.58-1-5.58-5.4,0-1.33,1.12-3.16,3.83-3.16a3.92,3.92,0,0,1,3.26,1.29l-1.25,1.13a2.38,2.38,0,0,0-2-1c-1.69,0-2.2,1-2.2,1.72,0,2.86,5.58,1.15,5.58,5.22,0,2.19-1.76,3.5-3.93,3.5a4.34,4.34,0,0,1-3.61-1.57Z"/><path class="cls-1" d="M247.69,56.66A3.48,3.48,0,0,0,245,55.36c-2.54,0-4.22,2-4.22,4.6A4.16,4.16,0,0,0,245,64.37a3.48,3.48,0,0,0,3-1.52l1.29,1a5.26,5.26,0,0,1-4.28,2A5.82,5.82,0,0,1,239.11,60a5.73,5.73,0,0,1,5.89-6,5,5,0,0,1,4,1.76Z"/><path class="cls-1" d="M255.65,54.21h1.53v4.7h5.86v-4.7h1.53V65.52h-1.53V60.35h-5.86v5.18h-1.53Z"/><path class="cls-1" d="M270.71,59.87a5.9,5.9,0,1,1,5.89,5.94A5.76,5.76,0,0,1,270.71,59.87Zm10.16,0a4.27,4.27,0,1,0-4.27,4.5A4.25,4.25,0,0,0,280.87,59.87Z"/><path class="cls-1" d="M288,59.87a5.89,5.89,0,1,1,5.89,5.94A5.75,5.75,0,0,1,288,59.87Zm10.16,0a4.27,4.27,0,1,0-4.27,4.5A4.25,4.25,0,0,0,298.13,59.87Z"/><path class="cls-1" d="M305.9,54.21h1.53v9.87h5.19v1.44H305.9Z"/><path class="cls-1" d="M21.72,34.56S17.6,31,17.5,25.67a12.51,12.51,0,0,1,7.15-12.1s-2.39,3.59-2,7.32C23.06,23.92,26,28.75,21.72,34.56Z"/><path class="cls-1" d="M22.74,34.78a13.57,13.57,0,0,0,3.05-11.14c-.95-6.07.61-9.57,5.45-11.72,4-1.77,7.76-.8,13.61-.84,5.39,0,7.08-3.41,7.08-3.41s1.76,6.23-6.86,8.13a11.48,11.48,0,0,0,14.35,2.12s-2.55,10-15.67,8.23c-6-.8-8.2.13-11.34,3.82C30,32.75,28.89,34.7,22.74,34.78Z"/><path class="cls-1" d="M37.08,27.51s.91.77,1.81,1.71a6.59,6.59,0,0,0,8.24,1.31,5.41,5.41,0,0,1-2.78-1.4A6.57,6.57,0,0,0,37.08,27.51Z"/><path class="cls-1" d="M52.22,56.46a24.15,24.15,0,0,0,1.12-6.77,26.39,26.39,0,0,0-.81-6.33l-11.7.43-.07,0c-3.6-1.23-9.53-3.2-10.11-3.23a36.77,36.77,0,0,0-5.23.56A36.61,36.61,0,0,0,21,45.19a3.3,3.3,0,0,0,2.92,1.25,4,4,0,0,0,2.76-1.76l.09-.16,2.43-.46.05.42c0,.22.82,5.5,7.78,5.5h.15v.8h-.16a9,9,0,0,1-6.25-2.08,2.52,2.52,0,0,1-1,1.82,2.38,2.38,0,0,1-.34,4.33,2.11,2.11,0,0,1,.09,2.86c6.65-.19,9.14-1.6,9.17-1.62l.1-.06H39Z"/><path class="cls-1" d="M20.12,46h.54a3.94,3.94,0,0,1-.5-.62h0a.4.4,0,0,1,.05-.49c.4-.42,1.2-1.23,2-2.06H20.12a1.58,1.58,0,1,0,0,3.16Z"/><path class="cls-1" d="M29.27,56.34A1.31,1.31,0,0,0,28,55H21.2a1.31,1.31,0,1,0,0,2.63H28A1.31,1.31,0,0,0,29.27,56.34Z"/><path class="cls-1" d="M21,54.2h7.63a1.58,1.58,0,1,0,0-3.16H21a1.58,1.58,0,1,0,0,3.16Z"/><path class="cls-1" d="M20.69,50.23h7.61a1.72,1.72,0,0,0,0-3.43H25.52a4.16,4.16,0,0,1-1.49.44,4,4,0,0,1-2.29-.44h-1a1.72,1.72,0,0,0,0,3.43Z"/><path class="cls-1" d="M20.12,42h3a9.91,9.91,0,0,1,2.08-1.68,27,27,0,0,1,3.92-.51l.41-3.59H18.94l.67,5.83A2.5,2.5,0,0,1,20.12,42Z"/><polygon class="cls-1" points="21.49 58.46 22.16 64.27 26.29 64.27 26.95 58.46 21.49 58.46"/><path class="cls-1" d="M34.52,79.2,34.15,79C20.49,72.58,11.23,65.55,5.81,57.25A36.85,36.85,0,0,1,0,37.49V0H69V37.46a36.88,36.88,0,0,1-5.82,19.8C57.82,65.55,48.55,72.58,34.9,79ZM1.76,1.76v35.7C2.18,49.69,6.4,63.88,34.52,77.25,62.64,63.88,66.87,49.69,67.29,37.43V1.76Z"/><path class="cls-1" d="M28.9,46a7.38,7.38,0,0,1-.33-1l-1.28.24a5.11,5.11,0,0,1-.64.73Z"/></svg>